name p6_grf_mean_speed_1.4
datacolumns 13
datarows 34
range 0.0000000000 0.3300000000
endheader
time	grf_x_l_mean	grf_x_l_var	grf_y_l_mean	grf_y_l_var	grf_z_l_mean	grf_z_l_var	grf_x_r_mean	grf_x_r_var	grf_y_r_mean	grf_y_r_var	grf_z_r_mean	grf_z_r_var
0.0000000000	176.2970901342	1.0000000000	832.6803774857	1.0000000000	0.0000000000	0.0000000000	7.7454295931	1.0000000000	11.4972429451	1.0000000000	0.0000000000	0.0000000000
0.0100000000	188.9936323024	1.0000000000	816.2655075694	1.0000000000	0.0000000000	0.0000000000	15.2650759226	1.0000000000	60.2435956300	1.0000000000	0.0000000000	0.0000000000
0.0200000000	199.6228566391	1.0000000000	785.6118617258	1.0000000000	0.0000000000	0.0000000000	22.7007416845	1.0000000000	143.6807702473	1.0000000000	0.0000000000	0.0000000000
0.0300000000	206.4275380348	1.0000000000	737.7171395454	1.0000000000	0.0000000000	0.0000000000	21.4872236362	1.0000000000	259.5125656055	1.0000000000	0.0000000000	0.0000000000
0.0400000000	205.7669958901	1.0000000000	670.9428983118	1.0000000000	0.0000000000	0.0000000000	0.7937701487	1.0000000000	392.8350928030	1.0000000000	0.0000000000	0.0000000000
0.0500000000	194.5572466721	1.0000000000	585.7987122249	1.0000000000	0.0000000000	0.0000000000	-36.6076188269	1.0000000000	522.8491211702	1.0000000000	0.0000000000	0.0000000000
0.0600000000	173.5721041693	1.0000000000	487.0054854341	1.0000000000	0.0000000000	0.0000000000	-75.6467197955	1.0000000000	635.7763089263	1.0000000000	0.0000000000	0.0000000000
0.0700000000	144.9193899165	1.0000000000	383.4793852436	1.0000000000	0.0000000000	0.0000000000	-109.7741412952	1.0000000000	725.0234737500	1.0000000000	0.0000000000	0.0000000000
0.0800000000	111.0279872868	1.0000000000	283.9321544358	1.0000000000	0.0000000000	0.0000000000	-139.5859961343	1.0000000000	792.2830189063	1.0000000000	0.0000000000	0.0000000000
0.0900000000	77.7805412729	1.0000000000	196.6183922527	1.0000000000	0.0000000000	0.0000000000	-161.9355724048	1.0000000000	845.9971475568	1.0000000000	0.0000000000	0.0000000000
0.1000000000	49.1186608602	1.0000000000	127.7844007272	1.0000000000	0.0000000000	0.0000000000	-176.0528023696	1.0000000000	892.2970900629	1.0000000000	0.0000000000	0.0000000000
0.1100000000	26.7724975115	1.0000000000	77.5620072886	1.0000000000	0.0000000000	0.0000000000	-183.9947094604	1.0000000000	931.6741855661	1.0000000000	0.0000000000	0.0000000000
0.1200000000	12.8802240427	1.0000000000	42.5037134297	1.0000000000	0.0000000000	0.0000000000	-184.8143566404	1.0000000000	962.3944642222	1.0000000000	0.0000000000	0.0000000000
0.1300000000	4.9113026358	1.0000000000	20.2213704869	1.0000000000	0.0000000000	0.0000000000	-179.4452512074	1.0000000000	983.1863389462	1.0000000000	0.0000000000	0.0000000000
0.1400000000	0.2896056816	1.0000000000	7.2794227868	1.0000000000	0.0000000000	0.0000000000	-171.0681871692	1.0000000000	992.1173516403	1.0000000000	0.0000000000	0.0000000000
0.1500000000	-1.2762158561	1.0000000000	0.2857385437	1.0000000000	0.0000000000	0.0000000000	-159.0272010432	1.0000000000	988.2788307624	1.0000000000	0.0000000000	0.0000000000
0.1600000000	0.0000000000	1.0000000000	0.0000000000	1.0000000000	0.0000000000	0.0000000000	-144.4495425492	1.0000000000	974.0179418466	1.0000000000	0.0000000000	0.0000000000
0.1700000000	0.0000000000	1.0000000000	0.0000000000	1.0000000000	0.0000000000	0.0000000000	-130.2131207908	1.0000000000	951.6669745012	1.0000000000	0.0000000000	0.0000000000
0.1800000000	0.0000000000	1.0000000000	0.0000000000	1.0000000000	0.0000000000	0.0000000000	-115.9028354588	1.0000000000	920.9182045142	1.0000000000	0.0000000000	0.0000000000
0.1900000000	0.0000000000	1.0000000000	0.0000000000	1.0000000000	0.0000000000	0.0000000000	-102.1037395506	1.0000000000	882.8905932544	1.0000000000	0.0000000000	0.0000000000
0.2000000000	-0.8066032270	1.0000000000	0.0954406996	1.0000000000	0.0000000000	0.0000000000	-90.5960278880	1.0000000000	841.7544766304	1.0000000000	0.0000000000	0.0000000000
0.2100000000	-0.2235716600	1.0000000000	0.5673105869	1.0000000000	0.0000000000	0.0000000000	-80.3911162802	1.0000000000	801.2101631479	1.0000000000	0.0000000000	0.0000000000
0.2200000000	-0.1541392915	1.0000000000	0.4977058990	1.0000000000	0.0000000000	0.0000000000	-70.9488751980	1.0000000000	763.1211419479	1.0000000000	0.0000000000	0.0000000000
0.2300000000	-0.7203998297	1.0000000000	0.0953239877	1.0000000000	0.0000000000	0.0000000000	-63.0056143521	1.0000000000	728.6488351031	1.0000000000	0.0000000000	0.0000000000
0.2400000000	-0.4520061652	1.0000000000	0.1041915860	1.0000000000	0.0000000000	0.0000000000	-55.4404366891	1.0000000000	699.7477397151	1.0000000000	0.0000000000	0.0000000000
0.2500000000	-0.3928319864	1.0000000000	0.1531993922	1.0000000000	0.0000000000	0.0000000000	-48.3094120261	1.0000000000	677.7422523663	1.0000000000	0.0000000000	0.0000000000
0.2600000000	-0.7166935020	1.0000000000	0.0583472471	1.0000000000	0.0000000000	0.0000000000	-42.2341219751	1.0000000000	661.8057462428	1.0000000000	0.0000000000	0.0000000000
0.2700000000	-0.2071057938	1.0000000000	0.1667504761	1.0000000000	0.0000000000	0.0000000000	-36.4217977302	1.0000000000	650.7192199718	1.0000000000	0.0000000000	0.0000000000
0.2800000000	-0.2377075809	1.0000000000	0.2460662108	1.0000000000	0.0000000000	0.0000000000	-30.6250143430	1.0000000000	644.2808498549	1.0000000000	0.0000000000	0.0000000000
0.2900000000	-0.8168551242	1.0000000000	0.1184947531	1.0000000000	0.0000000000	0.0000000000	-25.0005867219	1.0000000000	642.2368713181	1.0000000000	0.0000000000	0.0000000000
0.3000000000	-0.4477455483	1.0000000000	0.1747450538	1.0000000000	0.0000000000	0.0000000000	-19.1391629398	1.0000000000	644.0502629659	1.0000000000	0.0000000000	0.0000000000
0.3100000000	-0.2359579089	1.0000000000	0.3537559207	1.0000000000	0.0000000000	0.0000000000	-13.0035402184	1.0000000000	648.5467204539	1.0000000000	0.0000000000	0.0000000000
0.3200000000	-0.5549554957	1.0000000000	0.1762587925	1.0000000000	0.0000000000	0.0000000000	-6.4459325966	1.0000000000	654.2603408313	1.0000000000	0.0000000000	0.0000000000
0.3300000000	0.0000000000	1.0000000000	0.0000000000	1.0000000000	0.0000000000	0.0000000000	0.7066693406	1.0000000000	661.4074467341	1.0000000000	0.0000000000	0.0000000000
